#!OML:ASF F:\VICON\USERDATA\INSTALL\rory3\rory3.ASF
:FULLY-SPECIFIED
:DEGREES
28
root -0.37018244684507945 17.385132595734923 -4.2953384248663244 2.7763565673618773 0.8398704203565912 -0.10952623292052843
lfemur 4.2488832393894445 0.9094683995666264 -25.12271775275363
ltibia 41.11008260611139
lfoot -12.674866726542463 -0.9574026871543833
ltoes -26.34218115869378
rfemur -48.16851145533691 -4.224589802881914 23.311596282496968
rtibia 93.28376283497819
rfoot 1.2954920611472005 -7.130605432802655
rtoes 2.8460823049753703
lowerback 17.166172145404566 -0.1528956985108122 -3.7729697183859825
upperback -1.0607700627482115 -0.7192560176294331 1.5385511629427926
thorax -9.899960911240484 -0.140673922413578 4.585054809493016
lowerneck -21.85946152519694 -3.2628173382335968 -1.650618307996361
upperneck 14.926462478428489 -4.635847766501016 3.8518269872224993
head 8.166896375867731 -1.8822840973190909 1.0624965664989978
lclavicle -1.728697334253371e-15 1.7837101389398225e-15
lhumerus -32.26844020997207 -16.819747133925546 95.7286658132145
lradius 121.65399344504353
lwrist 38.21365214832182
lhand -24.142464014227592 1.4409862416112595
lfingers 7.12502
lthumb 1.5995384001748618 30.82071424174373
rclavicle -1.7311383089237372e-15 1.7805205425259487e-15
rhumerus -59.28579845695478 9.743208424562857 -99.28546109993366
rradius 109.41917984874948
rwrist -12.229081522676807
rhand -14.53107692674654 39.08024580321429
rfingers 7.12502
rthumb 10.236345600539458 9.815365478864642
29
root -0.3009676342986827 17.590351455334616 -3.498193254334465 3.8114356615148743 0.7175656631422676 -0.5620629500177441
lfemur 7.200848171223596 0.4691870142349492 -24.707117064926567
ltibia 38.251078266362946
lfoot -5.783422471146145 -4.47798783886558
ltoes -29.23625037303968
rfemur -48.27732337834134 -4.103796674147814 24.455558913370503
rtibia 84.20933442009769
rfoot -0.7851497923305759 -6.668846577906047
rtoes -0.851995571300447
lowerback 16.098698360157023 -0.6905140071930882 -2.9795417671234894
upperback -1.318602543545541 -1.24973683564246 1.7776347031699242
thorax -9.343063723295325 -0.4365606198351112 4.405083335965263
lowerneck -22.17014451175207 -3.122399874634362 -1.6769924886284944
upperneck 15.459971023344316 -4.418878919593904 3.589259916420583
head 8.305155536151016 -1.7992404483977682 0.9488160814268674
lclavicle -1.724402122936126e-15 1.78683375192317e-15
lhumerus -32.19551086779559 -16.474043275445503 94.91179865167855
lradius 123.35738902602824
lwrist 38.17487947861134
lhand -23.585194959038454 1.2090960322527207
lfingers 7.12502
lthumb 2.2369541768511487 30.325770016382382
rclavicle -1.7305110606433867e-15 1.7804893242506646e-15
rhumerus -60.88389877008054 9.328701826023789 -98.92791632541348
rradius 109.76389623757701
rwrist -12.084588784163342
rhand -13.999760560148314 39.18301548958873
rfingers 7.12502
rthumb 10.667603043374678 10.372953421931127
30
root -0.25414672305165315 17.724275346816892 -2.7347884361931722 4.162113073509592 -0.9340302040766456 -0.847435582510407
lfemur 9.951180712564367 1.3419440403363194 -24.673808312419247
ltibia 35.64184865449886
lfoot 2.12952478271954 -7.375249964062358
ltoes -29.753056567208468
rfemur -47.323898710142075 -2.647670307019228 25.485740834227023
rtibia 74.21981970279755
rfoot -2.1803910164856095 -5.6480200900285915
rtoes -10.12388729515391
lowerback 15.552204015079747 -0.5707535924521854 -2.9262974820806784
upperback -1.551365721320945 -1.0581724144918079 2.01540504134386
thorax -9.094771232801639 -0.3626479753736135 4.469916314635127
lowerneck -21.747617000220067 -2.963973303313298 -1.7575532382176007
upperneck 15.716192733641325 -4.100806589403416 3.372951509124531
head 8.338933479892956 -1.6881701210757027 0.8930601819458546
lclavicle -1.7280964331914842e-15 1.7841347597606044e-15
lhumerus -32.64488545391049 -16.179480292179093 94.28333182379458
lradius 124.04356038348114
lwrist 37.43335373233384
lhand -23.139257446342018 1.1827976149582247
lfingers 7.12502
lthumb 2.790526373858372 30.299045517106638
rclavicle -1.7305973499611469e-15 1.780415452092801e-15
rhumerus -62.52553915514203 8.510949326675654 -98.54139285626273
rradius 110.03142744862585
rwrist -11.989183586331945
rhand -13.863559586543664 39.10955499738542
rfingers 7.12502
rthumb 10.564855449582183 9.913135090950833
31
root -0.1979369187904726 17.894930270810594 -1.6639653356780943 4.4182729092688895 -1.6472459580932695 -0.9439760266450514
lfemur 12.325226319552678 0.7073846202191489 -25.127025594337695
ltibia 33.729892931775204
lfoot 9.216573912180683 -8.912065943957131
ltoes -28.121167985370178
rfemur -45.75808807960448 -2.4689717892413783 26.20170209698054
rtibia 63.43675248198191
rfoot -3.3052881655168136 -3.99892578640098
rtoes -15.947514121214422
lowerback 15.210746203741932 -0.7728557880637879 -2.61194657384804
upperback -1.8387583349317427 -1.2697815449559453 2.113079281590025
thorax -9.019961672092816 -0.47539760072098824 4.382030218203162
lowerneck -21.23884281743216 -2.8476123686351693 -1.8061068458947724
upperneck 15.816415854347552 -3.876002162976378 3.240312082909414
head 8.333805638522206 -1.5801640589409138 0.8899164557499455
lclavicle -1.7287497265121272e-15 1.7837062844907763e-15
lhumerus -33.273184944602335 -16.644633564663067 93.8074227624131
lradius 123.82849864531015
lwrist 36.32093793951731
lhand -23.039739456509775 1.9257925416883928
lfingers 7.12502
lthumb 3.075193372128666 31.142061201549666
rclavicle -1.7313441550806025e-15 1.780288459776245e-15
rhumerus -64.12983583458423 7.555237215446917 -98.03813959971636
rradius 110.39977314305202
rwrist -12.518150374560872
rhand -14.09698180202222 39.42020939821183
rfingers 7.12502
rthumb 11.238666894262892 10.146520081992906
32
root -0.1439103448892956 18.015625252954237 -0.5397796615527266 5.026474650263413 -2.1625966902953246 -1.054333413481685
lfemur 13.905819258796262 -0.4945091384067625 -25.768356075914994
ltibia 32.65450901460184
lfoot 14.461654526793396 -9.436776213749107
ltoes -22.962594190358878
rfemur -44.299820516886356 -2.6306443801667303 26.958287446643993
rtibia 52.54458938476636
rfoot -3.8372635726171254 -2.437139808146444
rtoes -21.451855807752942
lowerback 14.638058383462061 -0.9947098555701328 -2.2966003503416044
upperback -2.0458746415272384 -1.5548126811154046 2.2360553199917423
thorax -8.795561188741443 -0.5986707473468355 4.32831441560234
lowerneck -21.2076110279437 -2.844011132651068 -1.9958709878733363
upperneck 16.06449679720694 -3.8063416712575626 3.1376249528380513
head 8.454868936387166 -1.5429031391637316 0.8299189714964861
lclavicle -1.728419752781288e-15 1.7839360394729304e-15
lhumerus -33.70656230095554 -17.363674227161425 93.43148637551576
lradius 123.08228905305016
lwrist 35.08072173164034
lhand -23.94057675621397 1.2610577262938065
lfingers 7.12502
lthumb 2.683507626587965 30.707095530348433
rclavicle -1.7287376284543641e-15 1.7826716285949673e-15
rhumerus -65.27409070865293 6.573644517409588 -97.30303396174604
rradius 111.00151517450247
rwrist -12.831025824158548
rhand -14.679777197567198 39.544123305379536
rfingers 7.12502
rthumb 11.183186120702132 9.956326841552881
33
root -0.11185115603438446 18.080748179288964 0.6085221931592191 5.276678477595366 -2.7980096097462033 -0.7275529621514891
lfemur 15.345667691954896 -1.4176614555965454 -26.784207933336297
ltibia 32.874856260670605
lfoot 16.430825809105496 -9.343788921042314
ltoes -19.673887004879134
rfemur -42.33092273162712 -3.0634049073338168 27.357259049253845
rtibia 42.719692599622746
rfoot -3.995133989327197 -1.3583839495219676
rtoes -24.711665204670123
lowerback 14.587578015114689 -1.0603110390830663 -2.469683088820454
upperback -2.3239969743231654 -1.7372889204249709 2.1502919267794915
thorax -8.87506010216155 -0.6840286224147999 4.38736691115432
lowerneck -21.031861144961873 -2.743945302937387 -2.1558994222933068
upperneck 16.17312548207619 -3.6035247686623064 2.955063644985416
head 8.512642714041137 -1.4548352929266049 0.8084453616882713
lclavicle -1.724395630010581e-15 1.786806904153491e-15
lhumerus -34.22001161070439 -18.288306499773224 93.18344251853493
lradius 122.10193438121124
lwrist 34.76347042625598
lhand -24.148937439550366 1.2598749178178965
lfingers 7.12502
lthumb 2.3944862827755062 30.971483668412333
rclavicle -1.7264537080642292e-15 1.783527893543161e-15
rhumerus -66.07994571054019 5.668509333322836 -96.62674545332328
rradius 111.58450798358251
rwrist -13.302035172508297
rhand -14.50261870874765 39.5646059061813
rfingers 7.12502
rthumb 11.22136015523023 10.667438415604247
34
root -0.08574115163362567 18.110911792736264 1.7333872304922746 5.508876985679775 -2.849091199970966 0.1677951470688055
lfemur 15.814363988603217 -2.6840175908837733 -28.225978422710085
ltibia 34.95966424353654
lfoot 17.18451919195334 -9.227606074308085
ltoes -17.03265007652692
rfemur -40.208185015044585 -4.232343403939405 27.359469311893303
rtibia 34.793411984436105
rfoot -4.09651742163933 -2.2881076605404362
rtoes -24.769454757876986
lowerback 14.406715803101003 -1.2533410352566676 -2.9698146558022405
upperback -2.40581431102967 -2.1244084418810134 1.7780166627623082
thorax -8.680838499938057 -0.8315851978659875 4.434788277346032
lowerneck -20.983704299205492 -2.7590024498672783 -2.2575573248961973
upperneck 16.062372651814357 -3.5690520359655844 2.8956003522860545
head 8.504813908940855 -1.4428350291547531 0.8432208669231712
lclavicle -1.7201764667990414e-15 1.7898586899857986e-15
lhumerus -34.837511613943484 -19.26475399419876 93.20633990671865
lradius 120.73264885123545
lwrist 34.464567822669196
lhand -25.161257761511376 0.13967303179091628
lfingers 7.12502
lthumb 1.326837363931024 29.826841340334322
rclavicle -1.7251988459715283e-15 1.784175201671795e-15
rhumerus -66.54744633473824 4.394743507338095 -95.9681286629309
rradius 112.23338794677441
rwrist -13.377033198107432
rhand -14.072441328982318 39.552878603521236
rfingers 7.12502
rthumb 11.071868144161765 10.774908890586477
